<svg width="58" height="60" viewBox="0 0 58 60" fill="none" xmlns="http://www.w3.org/2000/svg">
<rect x="0.5" y="0.5" width="57" height="59" rx="4.5" fill="#7150F1" stroke="black"/>
<path d="M44.4181 9.93103H13.5814C10.981 9.93103 8.86386 11.9868 8.86386 14.5341V44.7443C8.86386 47.2916 10.981 49.3473 13.5814 49.3473H39.6776L38.4579 45.2135L41.4035 47.8725L44.188 50.3752L49.1357 54.6207V14.5341C49.1357 11.9868 47.0185 9.93103 44.4181 9.93103ZM35.5353 39.1134C35.5353 39.1134 34.7069 38.1525 34.0165 37.3034C37.0311 36.4767 38.1817 34.6444 38.1817 34.6444C37.2382 35.2477 36.3408 35.6723 35.5353 35.9628C34.3847 36.432 33.2801 36.7448 32.1985 36.9236C29.9893 37.3258 27.9642 37.2141 26.2383 36.9012C24.9266 36.6554 23.799 36.2979 22.8554 35.9404C22.3262 35.7393 21.7508 35.4935 21.1755 35.1807C21.1065 35.136 21.0375 35.1136 20.9684 35.069C20.9224 35.0466 20.8994 35.0243 20.8764 35.0019C20.4621 34.7785 20.232 34.6221 20.232 34.6221C20.232 34.6221 21.3366 36.4096 24.2592 37.2588C23.5688 38.1079 22.7174 39.1134 22.7174 39.1134C17.6316 38.957 15.6986 35.717 15.6986 35.717C15.6986 28.5219 19.0124 22.6899 19.0124 22.6899C22.3262 20.2767 25.4789 20.3437 25.4789 20.3437L25.709 20.6119C21.5667 21.7738 19.6567 23.539 19.6567 23.539C19.6567 23.539 20.163 23.2709 21.0144 22.891C23.4768 21.8408 25.4328 21.5503 26.2383 21.4833C26.3764 21.461 26.4914 21.4386 26.6295 21.4386C28.0332 21.2599 29.6211 21.2152 31.278 21.3939C33.4642 21.6397 35.8115 22.2654 38.2048 23.539C38.2048 23.539 36.3868 21.8632 32.4747 20.7012L32.7968 20.3437C32.7968 20.3437 35.9495 20.2767 39.2633 22.6899C39.2633 22.6899 42.5771 28.5219 42.5771 35.717C42.5771 35.717 40.6211 38.957 35.5353 39.1134ZM24.8345 28.6783C23.5228 28.6783 22.4872 29.7956 22.4872 31.1586C22.4872 32.5217 23.5458 33.6389 24.8345 33.6389C26.1462 33.6389 27.1818 32.5217 27.1818 31.1586C27.2048 29.7956 26.1462 28.6783 24.8345 28.6783ZM33.2341 28.6783C31.9224 28.6783 30.8868 29.7956 30.8868 31.1586C30.8868 32.5217 31.9454 33.6389 33.2341 33.6389C34.5458 33.6389 35.5813 32.5217 35.5813 31.1586C35.5813 29.7956 34.5458 28.6783 33.2341 28.6783Z" fill="white"/>
</svg>
