<svg width="58" height="60" viewBox="0 0 58 60" fill="none" xmlns="http://www.w3.org/2000/svg">
<rect x="0.5" y="0.5" width="57" height="59" rx="4.5" fill="#3E6DEB" stroke="black"/>
<path d="M46.3209 16.2293C46.3209 12.8833 43.3648 9.93103 40.0147 9.93103H14.5926C11.2424 9.93103 8.28638 12.8833 8.28638 16.2293V41.619C8.28638 44.9649 11.2424 47.9172 14.5926 47.9172H27.4022V33.5494H22.6725V27.2512H27.4022V24.6925C27.4022 20.3625 30.5553 16.6229 34.4967 16.6229H39.6205V22.9211H34.4967C33.9055 22.9211 33.3143 23.5116 33.3143 24.6925V27.2512H39.6205V33.5494H33.3143V47.9172H40.0147C43.3648 47.9172 46.3209 44.9649 46.3209 41.619V16.2293Z" fill="white"/>
</svg>
