<svg width="58" height="60" viewBox="0 0 58 60" fill="none" xmlns="http://www.w3.org/2000/svg">
<rect x="0.5" y="0.5" width="57" height="59" rx="4.5" fill="#4EC922" stroke="black"/>
<path d="M30.0106 24.9042V33.749H42.0549C40.2837 38.5252 35.6786 41.7093 30.3649 41.7093C23.4572 41.7093 17.9664 36.2255 17.9664 29.3266C17.9664 22.4276 23.4572 16.9438 30.3649 16.9438C33.0217 16.9438 35.5014 17.8283 37.6269 19.2435L38.3354 19.7742L43.649 12.8752L42.9405 12.3445C39.221 9.69105 34.9701 8.27588 30.3649 8.27588C18.6749 8.27588 9.11035 17.8283 9.11035 29.5035C9.11035 41.1786 18.6749 50.731 30.3649 50.731C42.0549 50.731 51.6195 41.1786 51.6195 29.5035V25.081H30.0106V24.9042Z" fill="white"/>
</svg>
