<svg width="59" height="60" viewBox="0 0 59 60" fill="none" xmlns="http://www.w3.org/2000/svg">
<rect x="0.5" y="0.5" width="58" height="59" rx="4.5" fill="#DA29C8" stroke="black"/>
<path d="M43.0633 12.1655H15.8539C12.7819 12.1655 10.4413 14.5031 10.4413 17.5713V44.746C10.4413 47.8141 12.7819 50.1517 15.8539 50.1517H43.0633C46.1353 50.1517 48.4759 47.8141 48.4759 44.746V17.5713C48.4759 14.5031 46.1353 12.1655 43.0633 12.1655ZM29.4586 42.5545C35.7489 42.5545 40.869 37.5871 40.869 31.5969C40.869 30.5742 40.7227 29.4054 40.4301 28.5288H43.6484V44.0155C43.6484 44.746 43.0633 45.4765 42.1855 45.4765H16.7317C16.0002 45.4765 15.2688 44.8921 15.2688 44.0155V28.3827H18.6334C18.3408 29.4054 18.1945 30.4281 18.1945 31.4508C18.0483 37.5871 23.1683 42.5545 29.4586 42.5545ZM29.4586 38.1715C25.3626 38.1715 22.1443 34.9573 22.1443 31.0125C22.1443 27.0678 25.3626 23.8536 29.4586 23.8536C33.5546 23.8536 36.7729 27.0678 36.7729 31.0125C36.7729 35.1034 33.5546 38.1715 29.4586 38.1715ZM43.5021 22.5387C43.5021 23.4153 42.7707 24.1458 41.893 24.1458H37.7969C36.9192 24.1458 36.1878 23.4153 36.1878 22.5387V18.594C36.1878 17.7174 36.9192 16.9869 37.7969 16.9869H41.893C42.7707 16.9869 43.5021 17.7174 43.5021 18.594V22.5387Z" fill="white"/>
</svg>
