<svg width="58" height="60" viewBox="0 0 58 60" fill="none" xmlns="http://www.w3.org/2000/svg">
<rect x="0.5" y="0.5" width="57" height="59" rx="4.5" fill="#FF0000" stroke="black"/>
<path d="M48.9915 27.6128C48.9915 26.746 48.8469 25.7349 48.8469 24.5793C48.7023 23.4237 48.5576 22.2681 48.413 21.2569C48.1237 20.1013 47.6898 19.2346 46.822 18.5123C46.0988 17.7901 45.0864 17.3567 44.0739 17.2123C40.7473 16.7789 35.8297 16.6345 29.1765 16.6345C22.5233 16.6345 17.4611 16.7789 14.2791 17.2123C13.2666 17.3567 12.2542 17.7901 11.531 18.5123C10.8079 19.2346 10.2293 20.1013 9.94004 21.2569C9.65077 22.2681 9.50616 23.2792 9.50616 24.5793C9.36152 25.7349 9.36151 26.746 9.36151 27.6128C9.36151 28.4795 9.36151 29.4906 9.36151 30.9351C9.36151 32.3797 9.36151 33.5353 9.36151 34.2575C9.36151 35.1242 9.50616 36.1354 9.50616 37.291C9.65079 38.4466 9.79541 39.6022 9.94004 40.6134C10.2293 41.769 10.6632 42.6357 11.531 43.358C12.2542 44.0802 13.2666 44.5136 14.2791 44.658C17.6057 45.0914 22.5233 45.2358 29.1765 45.2358C35.8297 45.2358 40.892 45.0914 44.0739 44.658C45.0864 44.5136 46.0988 44.0802 46.822 43.358C47.5452 42.6357 48.1237 41.769 48.413 40.6134C48.7023 39.6022 48.8469 38.5911 48.8469 37.291C48.9916 36.1354 48.9915 35.1242 48.9915 34.2575C48.9915 33.3908 48.9915 32.3797 48.9915 30.9351C48.9915 29.4906 48.9915 28.335 48.9915 27.6128ZM36.8422 32.0908L25.416 39.1689C25.2714 39.3133 24.9821 39.4578 24.6928 39.4578C24.4036 39.4578 24.2589 39.4578 23.9697 39.3133C23.5358 39.0244 23.2465 38.5911 23.2465 38.0133V23.7126C23.2465 23.1348 23.5358 22.7014 23.9697 22.4125C24.4036 22.1236 24.9821 22.1236 25.416 22.4125L36.8422 29.4906C37.2761 29.7795 37.5654 30.2129 37.5654 30.6462C37.5654 31.0796 37.2761 31.8019 36.8422 32.0908Z" fill="white"/>
</svg>
