<svg width="97" height="97" viewBox="0 0 97 97" fill="none" xmlns="http://www.w3.org/2000/svg">
<g clip-path="url(#clip0)">
<path d="M43.9531 39.4062H40.9219C40.5199 39.4062 40.1344 39.5659 39.8502 39.8502C39.5659 40.1344 39.4062 40.5199 39.4062 40.9219C39.4062 41.3238 39.5659 41.7094 39.8502 41.9936C40.1344 42.2778 40.5199 42.4375 40.9219 42.4375H43.9531C44.3551 42.4375 44.7406 42.2778 45.0248 41.9936C45.3091 41.7094 45.4688 41.3238 45.4688 40.9219C45.4688 40.5199 45.3091 40.1344 45.0248 39.8502C44.7406 39.5659 44.3551 39.4062 43.9531 39.4062Z" fill="#1E0202"/>
<path d="M56.0781 39.4062H53.0469C52.6449 39.4062 52.2594 39.5659 51.9752 39.8502C51.6909 40.1344 51.5312 40.5199 51.5312 40.9219C51.5312 41.3238 51.6909 41.7094 51.9752 41.9936C52.2594 42.2778 52.6449 42.4375 53.0469 42.4375H56.0781C56.4801 42.4375 56.8656 42.2778 57.1498 41.9936C57.4341 41.7094 57.5938 41.3238 57.5938 40.9219C57.5938 40.5199 57.4341 40.1344 57.1498 39.8502C56.8656 39.5659 56.4801 39.4062 56.0781 39.4062Z" fill="#1E0202"/>
<path d="M71.2601 17.9753C71.2231 18.1713 71.225 18.3727 71.266 18.5679C71.3069 18.7631 71.3859 18.9483 71.4986 19.1129C71.6112 19.2775 71.7552 19.4182 71.9224 19.5271C72.0895 19.6359 72.2765 19.7107 72.4726 19.7471L77.9925 20.7989L71.93 31.7114L49.4245 28.9015V22.7344H46.3933V29.0651L26.5886 31.7054L20.5261 20.7822L48.5 15.185L60.334 17.4388L66.9315 18.6952C67.3264 18.7704 67.735 18.6856 68.0675 18.4595C68.3999 18.2334 68.6289 17.8845 68.704 17.4896C68.7792 17.0946 68.6944 16.686 68.4683 16.3536C68.2422 16.0212 67.8933 15.7922 67.4983 15.717L63.8911 15.0305L69.211 10.2168C69.3586 10.0833 69.4784 9.92196 69.5637 9.7421C69.6489 9.56223 69.6979 9.36734 69.7078 9.16855C69.7177 8.96975 69.6884 8.77095 69.6215 8.5835C69.5546 8.39604 69.4514 8.22359 69.3178 8.07601C69.1843 7.92842 69.023 7.80859 68.8431 7.72335C68.6632 7.63811 68.4684 7.58913 68.2696 7.5792C68.0708 7.56928 67.872 7.59861 67.6845 7.66552C67.4971 7.73243 67.3246 7.8356 67.177 7.96916L62.1406 12.5342V10.6094C62.1374 7.79658 61.0186 5.09991 59.0296 3.11096C57.0407 1.12201 54.344 0.00320913 51.5312 0L45.4687 0C42.6559 0.00320913 39.9593 1.12201 37.9703 3.11096C35.9814 5.09991 34.8626 7.79658 34.8594 10.6094V12.6115L29.8229 7.97825C29.5271 7.70612 29.1352 7.56266 28.7336 7.57943C28.332 7.5962 27.9535 7.77182 27.6814 8.06767C27.4092 8.36352 27.2658 8.75536 27.2825 9.15698C27.2908 9.35584 27.3382 9.55113 27.422 9.73167C27.5058 9.91222 27.6243 10.0745 27.7708 10.2093L33.1558 15.1638L17.8844 18.2178C17.6504 18.2646 17.4309 18.366 17.2435 18.5137C17.0562 18.6614 16.9063 18.8512 16.8062 19.0678C16.706 19.2843 16.6584 19.5214 16.6672 19.7598C16.676 19.9982 16.7409 20.2312 16.8568 20.4397L24.25 33.7363V40.9219C24.25 42.5298 24.8887 44.0718 26.0256 45.2087C27.1626 46.3456 28.7046 46.9844 30.3125 46.9844H31.8281V48.1302C31.8281 50.3763 33.7984 52.7498 36.375 54.8959V64.1306L31.284 66.0888C31.0935 66.1567 30.9185 66.262 30.7693 66.3985C30.6201 66.5351 30.4998 66.7001 30.4153 66.8839C30.3309 67.0676 30.2841 67.2665 30.2777 67.4686C30.2713 67.6707 30.3054 67.8721 30.3781 68.0609C30.4507 68.2496 30.5604 68.4219 30.7006 68.5676C30.8409 68.7133 31.0088 68.8295 31.1947 68.9093C31.3805 68.9891 31.5804 69.0308 31.7827 69.0322C31.9849 69.0335 32.1853 68.9943 32.3722 68.917L36.5508 67.3089C37.0358 71.3193 38.9121 80.1917 46.128 86.4179C42.8399 88.2503 39.3381 89.6696 35.702 90.6435L20.7261 73.3653L26.334 71.1253C26.7072 70.9759 27.0058 70.6844 27.1641 70.3149C27.3224 69.9454 27.3275 69.5282 27.1782 69.1549C27.0288 68.7817 26.7374 68.4831 26.3678 68.3248C25.9983 68.1665 25.5811 68.1614 25.2079 68.3107L17.6297 71.342C17.5752 71.3632 17.5418 71.4132 17.4903 71.4405C17.3878 71.4838 17.2907 71.5387 17.2008 71.6042C17.172 71.63 17.1599 71.6648 17.1326 71.6921C16.9875 71.8578 16.8708 72.0462 16.787 72.2498C16.7734 72.2892 16.7401 72.318 16.7279 72.359L10.6654 95.0933C10.6141 95.2857 10.6011 95.4863 10.6273 95.6837C10.6535 95.8811 10.7183 96.0713 10.818 96.2437C10.9177 96.416 11.0504 96.567 11.2084 96.6881C11.3665 96.8091 11.5469 96.8979 11.7392 96.9492C12.1278 97.0529 12.5415 96.9981 12.8896 96.7967C13.2376 96.5953 13.4914 96.2639 13.5951 95.8754L18.915 75.904L36.7448 96.4771C37.0081 96.781 37.3813 96.9678 37.7824 96.9966C38.1834 97.0253 38.5795 96.8935 38.8833 96.6302C39.1872 96.3669 39.3741 95.9937 39.4028 95.5926C39.4315 95.1916 39.2997 94.7955 39.0364 94.4916L37.8906 93.1685C59.1776 86.6937 61.0994 73.2047 60.8842 67.4787L76.2253 73.379L67.3528 83.3594H62.1406C61.7386 83.3594 61.3531 83.5191 61.0689 83.8033C60.7847 84.0875 60.625 84.473 60.625 84.875V93.9688C60.625 94.3707 60.7847 94.7562 61.0689 95.0405C61.3531 95.3247 61.7386 95.4844 62.1406 95.4844H71.2344C71.6363 95.4844 72.0218 95.3247 72.3061 95.0405C72.5903 94.7562 72.75 94.3707 72.75 93.9688V84.875C72.7478 84.5022 72.6068 84.1436 72.3547 83.869C72.1025 83.5944 71.7572 83.4236 71.3859 83.3897L77.9258 76.0328L81.874 95.7875C81.9439 96.1298 82.1299 96.4375 82.4006 96.6585C82.6713 96.8794 83.01 97.0001 83.3594 97C83.4612 97 83.5627 96.9898 83.6625 96.9697C83.8576 96.9299 84.0429 96.8521 84.2079 96.7407C84.3729 96.6293 84.5143 96.4865 84.6241 96.3204C84.7339 96.1543 84.8098 95.9682 84.8477 95.7728C84.8855 95.5773 84.8845 95.3763 84.8447 95.1813L80.2978 72.4469C80.2476 72.1963 80.1348 71.9625 79.97 71.7672C79.8052 71.5719 79.5936 71.4215 79.3551 71.3299L60.625 64.1306V54.8959C63.2015 52.7498 65.1719 50.3763 65.1719 48.1302V46.9844H66.6875C68.2954 46.9844 69.8374 46.3456 70.9743 45.2087C72.1113 44.0718 72.75 42.5298 72.75 40.9219V34.8427C73.0181 34.8448 73.2819 34.7758 73.5146 34.6427C73.7474 34.5096 73.9406 34.3171 74.0746 34.0849L81.6528 20.4443C81.7692 20.2347 81.8343 20.0004 81.8426 19.7608C81.8509 19.5211 81.8023 19.2829 81.7006 19.0658C81.599 18.8486 81.4473 18.6586 81.2579 18.5115C81.0686 18.3643 80.8471 18.2642 80.6115 18.2193L73.0334 16.7749C72.6391 16.6994 72.2309 16.7833 71.8985 17.0084C71.566 17.2334 71.3364 17.5812 71.2601 17.9753ZM45.4687 3.03125H51.5312C53.5403 3.03366 55.4665 3.83284 56.8871 5.25349C58.3078 6.67414 59.1069 8.60027 59.1094 10.6094V14.118L50.0156 12.3857V7.57812C50.0156 7.17616 49.8559 6.79065 49.5717 6.50642C49.2875 6.22218 48.9019 6.0625 48.5 6.0625C48.098 6.0625 47.7125 6.22218 47.4283 6.50642C47.144 6.79065 46.9844 7.17616 46.9844 7.57812V12.3978L37.8906 14.2166V10.6094C37.893 8.60027 38.6922 6.67414 40.1128 5.25349C41.5335 3.83284 43.4596 3.03366 45.4687 3.03125ZM30.3125 43.9531C29.5085 43.9531 28.7375 43.6338 28.1691 43.0653C27.6006 42.4968 27.2812 41.7258 27.2812 40.9219V34.6714L31.8281 34.0652V43.9531H30.3125ZM56.5434 75.3554C54.9165 79.1413 52.2401 82.3825 48.8304 84.6962C42.6845 79.8143 40.5278 72.5621 39.7912 68.3926L47.6194 73.9837C47.8764 74.1672 48.1842 74.2658 48.5 74.2658C48.8157 74.2658 49.1236 74.1672 49.3806 73.9837L57.8969 67.9C57.9686 70.4522 57.5077 72.9913 56.5434 75.3554ZM69.7187 92.4531H63.6562V86.3906H69.7187V92.4531ZM57.5937 64.3913L48.5 70.8873L39.4062 64.3913V57.1603C42.104 58.9616 44.9227 60.575 47.8422 61.9891C48.0474 62.0879 48.2722 62.1392 48.5 62.1392C48.7277 62.1392 48.9526 62.0879 49.1578 61.9891C52.0773 60.575 54.8959 58.9616 57.5937 57.1603V64.3913ZM48.5 58.9351C42.7649 56.0736 34.8594 50.9129 34.8594 48.1287V33.6605L48.5 31.8418L62.1406 33.5453V48.1317C62.1406 50.9144 54.2351 56.0781 48.5 58.9366V58.9351ZM66.6875 43.9531H65.1719V33.9242L69.7187 34.4926V40.9219C69.7187 41.7258 69.3994 42.4968 68.8309 43.0653C68.2624 43.6338 67.4914 43.9531 66.6875 43.9531Z" fill="#1E0202"/>
<path d="M28.7969 22.7344C28.3949 22.7344 28.0094 22.8941 27.7252 23.1783C27.4409 23.4625 27.2812 23.848 27.2812 24.25C27.2812 24.652 27.4409 25.0375 27.7252 25.3217C28.0094 25.6059 28.3949 25.7656 28.7969 25.7656H30.3125C30.7145 25.7656 31.1 25.6059 31.3842 25.3217C31.6684 25.0375 31.8281 24.652 31.8281 24.25C31.8281 23.848 31.6684 23.4625 31.3842 23.1783C31.1 22.8941 30.7145 22.7344 30.3125 22.7344H28.7969Z" fill="#1E0202"/>
<path d="M34.8594 22.7344C34.4574 22.7344 34.0719 22.8941 33.7877 23.1783C33.5034 23.4625 33.3438 23.848 33.3438 24.25C33.3438 24.652 33.5034 25.0375 33.7877 25.3217C34.0719 25.6059 34.4574 25.7656 34.8594 25.7656H36.375C36.777 25.7656 37.1625 25.6059 37.4467 25.3217C37.7309 25.0375 37.8906 24.652 37.8906 24.25C37.8906 23.848 37.7309 23.4625 37.4467 23.1783C37.1625 22.8941 36.777 22.7344 36.375 22.7344H34.8594Z" fill="#1E0202"/>
</g>
<defs>
<clipPath id="clip0">
<rect width="97" height="97" fill="white"/>
</clipPath>
</defs>
</svg>
