<svg width="115" height="115" viewBox="0 0 115 115" fill="none" xmlns="http://www.w3.org/2000/svg">
<path d="M88.1663 95.8784H109.25C111.367 95.8784 113.084 94.1623 113.084 92.0452V23.0453C113.084 20.9282 111.367 19.2112 109.25 19.2112H5.75041C3.63329 19.2112 1.91626 20.9282 1.91626 23.0453V92.0452C1.91626 94.1623 3.63329 95.8784 5.75041 95.8784H88.1663Z" fill="#CFD8DC"/>
<path d="M83.7047 95.8784H103.691C104.683 95.853 105.624 95.4354 106.307 94.7159C106.99 93.9973 107.359 93.0366 107.333 92.0452V23.0453C107.359 22.0539 106.99 21.0923 106.307 20.3737C105.624 19.6551 104.683 19.2366 103.691 19.2112H5.55822C4.56678 19.2366 3.62622 19.6551 2.94362 20.3737C2.26014 21.0923 1.89077 22.0539 1.91709 23.0453V92.0452C1.89077 93.0366 2.26014 93.9973 2.94362 94.7159C3.62622 95.4354 4.56678 95.853 5.55822 95.8784H83.7047Z" fill="#F5F5F5"/>
<path d="M78.5834 57.5448C78.5834 69.1893 69.1437 78.6282 57.5 78.6282C45.8562 78.6282 36.4165 69.1893 36.4165 57.5448C36.4165 45.901 45.8562 36.4613 57.5 36.4613C69.1437 36.4613 78.5834 45.901 78.5834 57.5448Z" fill="#C52828"/>
<path d="M72.8331 57.5448C72.8331 45.901 64.6813 36.4613 54.6248 36.4613C44.5691 36.4613 36.4165 45.901 36.4165 57.5448C36.4165 69.1893 44.5691 78.6282 54.6248 78.6282C64.6813 78.6282 72.8331 69.1893 72.8331 57.5448Z" fill="#F44335"/>
<path d="M109.25 17.2949H5.75035C2.57423 17.2949 0 19.8692 0 23.0453V92.0451C0 95.2203 2.57423 97.7946 5.75035 97.7946H109.25C112.426 97.7946 115 95.2203 115 92.0451V23.0453C115 19.8692 112.426 17.2949 109.25 17.2949ZM111.167 92.0451C111.167 93.1032 110.309 93.9613 109.25 93.9613H5.75035C4.69135 93.9613 3.83327 93.1032 3.83327 92.0451V23.0453C3.83327 21.9863 4.69135 21.1282 5.75035 21.1282H109.25C110.309 21.1282 111.167 21.9863 111.167 23.0453V92.0451Z" fill="black"/>
<path d="M57.5 34.545C44.7973 34.545 34.5004 44.842 34.5004 57.5447C34.5004 70.2474 44.7973 80.5452 57.5 80.5452C70.2027 80.5452 80.4997 70.2474 80.4997 57.5447C80.4865 44.8481 70.1966 34.5582 57.5 34.545ZM57.5 76.7111C46.9144 76.7111 38.3336 68.1303 38.3336 57.5447C38.3336 46.9591 46.9144 38.3783 57.5 38.3783C68.0856 38.3783 76.6664 46.9591 76.6664 57.5447C76.655 68.1259 68.0803 76.6997 57.5 76.7111Z" fill="black"/>
</svg>
