<svg width="92" height="100" viewBox="0 0 92 100" fill="none" xmlns="http://www.w3.org/2000/svg">
<path d="M86.25 100H92V96.875H86.9414L81.6227 89.6484C81.4879 89.4655 81.3171 89.3179 81.1228 89.2165C80.9284 89.115 80.7156 89.0624 80.5 89.0625V68.75H84.8125C85.132 68.7501 85.4424 68.6345 85.6948 68.4215C85.9471 68.2085 86.1269 67.9102 86.2059 67.5737C86.2849 67.2372 86.2584 66.8817 86.1308 66.5633C86.0032 66.2449 85.7816 65.9819 85.5011 65.8156L73.3456 58.6094L86.4857 56.2281C86.8351 56.1709 87.1529 55.9758 87.3783 55.68C87.6038 55.3843 87.7211 55.0087 87.7079 54.6249C87.6948 54.2411 87.552 53.876 87.307 53.5994C87.0619 53.3227 86.7317 53.1538 86.3794 53.125C79.9761 52.4964 73.6616 51.0623 67.5625 48.8516V39.0625C67.5625 38.6481 67.411 38.2507 67.1415 37.9576C66.8719 37.6646 66.5062 37.5 66.125 37.5C65.7438 37.5 65.3781 37.6646 65.1085 37.9576C64.839 38.2507 64.6875 38.6481 64.6875 39.0625V47.8516C64.2562 47.7047 63.8106 47.5578 63.3564 47.4078C61.7881 46.8891 60.1939 46.3563 58.9375 45.8266V28.125H64.6875V32.8125C64.6875 33.2269 64.839 33.6243 65.1085 33.9174C65.3781 34.2104 65.7438 34.375 66.125 34.375C66.5062 34.375 66.8719 34.2104 67.1415 33.9174C67.411 33.6243 67.5625 33.2269 67.5625 32.8125V28.125H76.1875V25H69.368C64.3509 22.2133 59.719 18.674 55.6082 14.4859C52.5621 11.369 49.8236 7.91486 47.4375 4.17969V1.5625C47.4375 1.1481 47.286 0.750671 47.0165 0.457646C46.7469 0.16462 46.3812 0 46 0C45.6188 0 45.2531 0.16462 44.9835 0.457646C44.714 0.750671 44.5625 1.1481 44.5625 1.5625V4.17969C42.1762 7.91711 39.4373 11.3734 36.3903 14.4922C32.2796 18.678 27.6483 22.2151 22.632 25H15.8125V28.125H24.4375V48.8094C18.2479 50.7454 11.9376 52.1924 5.55594 53.1391C5.21538 53.1899 4.90285 53.3717 4.67502 53.6515C4.44719 53.9313 4.31915 54.2905 4.3141 54.6641C4.30906 55.0377 4.42736 55.4009 4.64754 55.6879C4.86772 55.9748 5.17521 56.1665 5.51425 56.2281L18.1642 58.5187L3.71019 65.7687C3.41264 65.918 3.17094 66.1732 3.02512 66.4922C2.8793 66.8112 2.83813 67.1747 2.90841 67.5226C2.9787 67.8705 3.15623 68.1819 3.41159 68.4051C3.66695 68.6283 3.98481 68.75 4.3125 68.75H11.5V70.3125C11.5 70.7269 11.6515 71.1243 11.921 71.4174C12.1906 71.7104 12.5563 71.875 12.9375 71.875C13.3187 71.875 13.6844 71.7104 13.954 71.4174C14.2235 71.1243 14.375 70.7269 14.375 70.3125V68.75H21.5625V79.6875H14.375V76.5625C14.375 76.1481 14.2235 75.7507 13.954 75.4576C13.6844 75.1646 13.3187 75 12.9375 75C12.5563 75 12.1906 75.1646 11.921 75.4576C11.6515 75.7507 11.5 76.1481 11.5 76.5625V89.0625C11.2844 89.0624 11.0716 89.115 10.8772 89.2165C10.6829 89.3179 10.512 89.4655 10.3773 89.6484L5.05856 96.875H0V100H86.25ZM33.0625 89.0625H24.4375V82.8125H33.0625V89.0625ZM35.9375 68.75H56.0625V89.0625H47.4375V81.25C47.4375 80.8356 47.286 80.4382 47.0165 80.1451C46.7469 79.8521 46.3812 79.6875 46 79.6875C45.6188 79.6875 45.2531 79.8521 44.9835 80.1451C44.714 80.4382 44.5625 80.8356 44.5625 81.25V89.0625H35.9375V68.75ZM58.9375 89.0625V82.8125H67.5625V89.0625H58.9375ZM58.9375 79.6875V68.75H67.5625V79.6875H58.9375ZM56.0625 92.1875V96.875H35.9375V92.1875H56.0625ZM83.2586 96.875H58.9375V92.1875H79.81L83.2586 96.875ZM70.4375 89.0625V82.8125H77.625V89.0625H70.4375ZM77.625 79.6875H70.4375V68.75H77.625V79.6875ZM35.9375 39.0625H56.0625V45.3125H35.9375V39.0625ZM38.3597 16.7641C41.1645 13.8992 43.7219 10.7611 46 7.38906C48.2781 10.7611 50.8355 13.8992 53.6403 16.7641C56.672 19.8576 59.9786 22.6164 63.5116 25H47.4375C47.0563 25 46.6906 25.1646 46.421 25.4576C46.1515 25.7507 46 26.1481 46 26.5625C46 26.9769 46.1515 27.3743 46.421 27.6674C46.6906 27.9604 47.0563 28.125 47.4375 28.125H56.0625V35.9375H47.4375V32.8125C47.4375 32.3981 47.286 32.0007 47.0165 31.7076C46.7469 31.4146 46.3812 31.25 46 31.25C45.6188 31.25 45.2531 31.4146 44.9835 31.7076C44.714 32.0007 44.5625 32.3981 44.5625 32.8125V35.9375H35.9375V28.125H41.6875C42.0687 28.125 42.4344 27.9604 42.704 27.6674C42.9735 27.3743 43.125 26.9769 43.125 26.5625C43.125 26.1481 42.9735 25.7507 42.704 25.4576C42.4344 25.1646 42.0687 25 41.6875 25H28.4884C32.0214 22.6164 35.328 19.8576 38.3597 16.7641ZM33.0625 28.125V45.7687C31.1636 46.5172 29.2431 47.2156 27.3125 47.8703V28.125H33.0625ZM26.2833 51.4984C29.1252 50.5844 31.9743 49.5547 34.7573 48.4375H57.1967C58.938 49.1884 60.7132 49.8429 62.5154 50.3984C63.6309 50.7672 64.722 51.1266 65.6478 51.4766C69.3264 52.8615 73.0881 53.9708 76.9062 54.7969L68.8807 56.25H23.1193L14.4584 54.6875C18.4503 53.8094 22.4049 52.7469 26.2833 51.4984ZM12.9375 65.625H10.8574L23.3162 59.375H68.6334L79.1746 65.625H12.9375ZM24.4375 68.75H33.0625V79.6875H24.4375V68.75ZM14.375 82.8125H21.5625V89.0625H14.375V82.8125ZM12.19 92.1875H33.0625V96.875H8.74144L12.19 92.1875Z" fill="#1E0202"/>
<path d="M46 21.875C46.3812 21.875 46.7469 21.7104 47.0165 21.4174C47.2861 21.1243 47.4375 20.7269 47.4375 20.3125V17.1875C47.4375 16.7731 47.2861 16.3757 47.0165 16.0826C46.7469 15.7896 46.3812 15.625 46 15.625C45.6188 15.625 45.2531 15.7896 44.9835 16.0826C44.7139 16.3757 44.5625 16.7731 44.5625 17.1875V20.3125C44.5625 20.7269 44.7139 21.1243 44.9835 21.4174C45.2531 21.7104 45.6188 21.875 46 21.875Z" fill="#1E0202"/>
<path d="M20.125 37.5V34.375C20.125 33.9606 19.9735 33.5632 19.704 33.2701C19.4344 32.9771 19.0687 32.8125 18.6875 32.8125C18.3063 32.8125 17.9406 32.9771 17.671 33.2701C17.4015 33.5632 17.25 33.9606 17.25 34.375V37.5C17.25 37.9144 17.4015 38.3118 17.671 38.6049C17.9406 38.8979 18.3063 39.0625 18.6875 39.0625C19.0687 39.0625 19.4344 38.8979 19.704 38.6049C19.9735 38.3118 20.125 37.9144 20.125 37.5Z" fill="#1E0202"/>
<path d="M71.875 34.375V37.5C71.875 37.9144 72.0264 38.3118 72.296 38.6049C72.5656 38.8979 72.9313 39.0625 73.3125 39.0625C73.6937 39.0625 74.0594 38.8979 74.329 38.6049C74.5986 38.3118 74.75 37.9144 74.75 37.5V34.375C74.75 33.9606 74.5986 33.5632 74.329 33.2701C74.0594 32.9771 73.6937 32.8125 73.3125 32.8125C72.9313 32.8125 72.5656 32.9771 72.296 33.2701C72.0264 33.5632 71.875 33.9606 71.875 34.375Z" fill="#1E0202"/>
</svg>
